PathFileType	4	(x/y/z)	S05_P20_T07
DataRate	CameraRate	NumFrames	NumMarkers	Units	OrigDataRate	OrigDataStartFrame	OrigNumFrames
240	240	9	50	mm	240	189	376
Frame#	Time	Sternum			R.Acromium			L.Acromium			Top.Head			R.ASIS			L.ASIS			R.PSIS			L.PSIS			R.Great.Tro			L.Great.Tro			R.Iliac.Crest			L.Iliac.Crest			V.Sacral			R.Thigh.Upper.Post			R.Thigh.Lower.Ant			R.Thigh.Lower.Post			R.Thigh.Upper.Ant			R.Knee.Lat			R.Knee.Med			R.Shank.Upper.Post			R.Shank.Lower.Ant			R.Shank.Lower.Post			R.Shank.Upper.Ant			R.Ankle.Lat			R.Ankle.Med			R.Heel.Upper			R.Heel.Med			R.Heel.Lat			R.Toe.Lat			R.Toe.Med			R.Toe.Tip			L.Thigh.Upper.Post			L.Thigh.Lower.Ant			L.Thigh.Lower.Post			L.Thigh.Upper.Ant			L.Knee.Lat			L.Shank.Upper.Post			L.Shank.Lower.Ant			L.Shank.Lower.Post			L.Shank.Upper.Ant			L.Ankle.Lat			L.Ankle.Med			L.Heel.Upper			L.Heel.Med			L.Heel.Lat			L.Toe.Lat			L.Toe.Med			L.Toe.Tip			Cervical.Spine			Back			
		X1	Y1	Z1	X2	Y2	Z2	X3	Y3	Z3	X4	Y4	Z4	X5	Y5	Z5	X6	Y6	Z6	X7	Y7	Z7	X8	Y8	Z8	X9	Y9	Z9	X10	Y10	Z10	X11	Y11	Z11	X12	Y12	Z12	X13	Y13	Z13	X14	Y14	Z14	X15	Y15	Z15	X16	Y16	Z16	X17	Y17	Z17	X18	Y18	Z18	X19	Y19	Z19	X20	Y20	Z20	X21	Y21	Z21	X22	Y22	Z22	X23	Y23	Z23	X24	Y24	Z24	X25	Y25	Z25	X26	Y26	Z26	X27	Y27	Z27	X28	Y28	Z28	X29	Y29	Z29	X30	Y30	Z30	X31	Y31	Z31	X32	Y32	Z32	X33	Y33	Z33	X34	Y34	Z34	X35	Y35	Z35	X36	Y36	Z36	X37	Y37	Z37	X38	Y38	Z38	X39	Y39	Z39	X40	Y40	Z40	X41	Y41	Z41	X42	Y42	Z42	X43	Y43	Z43	X44	Y44	Z44	X45	Y45	Z45	X46	Y46	Z46	X47	Y47	Z47	X48	Y48	Z48	X49	Y49	Z49	X50	Y50	Z50	

189	0.78333	-319.94	1270	351.04	-395.51	1525.8	523.43	-415.38	1556	195.74	-415.22	1833.6	346.46	-403.04	1016.6	478.82	-386.02	1028.2	230.19	-598.51	1039.1	379	-590.71	1037.2	287.89	-493.16	937.49	530.14	-454.27	947.69	143.9	-487.61	1101.2	510.86	-474.96	1102.8	178.41	-608.12	1003.8	345.86	-451.07	710.88	511.89	-401.87	637.74	459.84	-469.4	625.92	485.28	-387.33	722.67	486.87	-486.3	529.35	462.06	-471.9	520.55	329.09	-587.94	297.26	434.75	-532.75	226.33	436.5	-593.27	222.93	414.63	-525.9	302.05	454.29	-554.6	125.33	415.29	-538.04	151.2	329.58	-623.13	77.661	346.68	-612.02	44.938	320.57	-619.17	50.653	384.82	-460.87	35.657	454.47	-414.33	40.585	337.85	-354.71	55.019	389.43	-353.09	728.76	142.75	-250.62	694.64	167.35	-304.8	647.18	156.82	-290.91	775.64	154.62	-267.54	566.71	164.74	-342.63	374.02	173.65	-279.08	312.89	171.58	-347.01	303.04	191.58	-278.8	382.56	158.67	-326.87	164.44	198.43	-282.76	179.14	279.74	-379.83	113.99	259.03	-364.03	91.028	290.2	-381.4	87.212	231.15	-209.68	82.189	154.62	-172.2	98.934	267.9	-117.81	110.7	205.99	-457.57	1576.7	368.26	-583.06	1306.1	359.14
190	0.7875	-314.44	1269.4	351.22	-389.93	1525.5	523.34	-409.81	1555.3	195.59	-409.72	1833	345.93	-397.71	1016.1	479.18	-380.39	1027.5	230.53	-592.96	1038.8	379.04	-585.1	1036.8	287.97	-488.1	937.2	530.42	-448.72	946.98	144.2	-482.1	1100.9	511.03	-469.18	1102.1	178.58	-602.61	1003.4	345.93	-447.43	710.49	511.99	-398.64	637.04	459.92	-466.25	625.64	485.34	-383.53	721.83	487.1	-483.94	529.13	462.06	-469.65	520.33	329.04	-586.77	297.5	434.74	-531.88	226.32	436.44	-592.42	223.21	414.56	-524.67	302.01	454.23	-554.25	125.38	415.14	-537.55	151.26	329.41	-622.97	77.754	346.54	-611.85	44.999	320.5	-619.1	50.796	384.71	-460.84	35.651	454.44	-414.23	40.449	337.85	-354.6	54.789	389.45	-348.51	727.5	143.26	-246.14	693.06	167.76	-300.5	645.78	157.43	-286.15	774.17	154.98	-262.71	565.44	165.48	-332.29	370.57	173.99	-266.91	311.36	171.95	-334.52	299.47	191.97	-268.71	381.02	159.1	-309.83	161.33	198.65	-266.22	177.36	279.99	-361.12	109.12	259.18	-344.6	86.675	290.32	-361.73	82.282	231.26	-189.95	82.758	154.93	-153.17	100.68	268.27	-99.087	114.18	206.38	-452.03	1576.2	368.13	-577.51	1305.6	359.25
191	0.79167	-308.93	1268.8	351.4	-384.35	1525.1	523.23	-404.22	1554.5	195.43	-404.22	1832.4	345.38	-392.37	1015.4	479.54	-374.74	1026.8	230.86	-587.4	1038.4	379.07	-579.47	1036.3	288.04	-483.02	936.87	530.7	-443.16	946.19	144.5	-476.6	1100.5	511.19	-463.38	1101.4	178.74	-597.07	1003	345.97	-443.76	710.06	512.08	-395.38	636.33	460.01	-463.06	625.33	485.42	-379.69	720.96	487.34	-481.53	528.89	462.06	-467.37	520.09	328.99	-585.57	297.73	434.74	-531	226.3	436.38	-591.56	223.48	414.5	-523.42	301.96	454.17	-553.91	125.42	414.98	-537.05	151.31	329.23	-622.82	77.841	346.39	-611.68	45.056	320.43	-619.02	50.934	384.6	-460.82	35.655	454.42	-414.13	40.305	337.86	-354.48	54.559	389.46	-344.02	726.1	143.74	-241.79	691.29	168.18	-296.34	644.22	158.04	-281.49	772.53	155.35	-257.98	564.04	166.25	-322.02	367.18	174.31	-254.87	309.91	172.31	-322.11	296.02	192.33	-258.73	379.5	159.54	-292.88	158.45	198.86	-249.84	175.8	280.22	-342.5	104.53	259.3	-325.26	82.633	290.41	-342.13	77.662	231.35	-170.43	83.589	155.25	-134.4	102.67	268.64	-80.658	117.88	206.79	-446.48	1575.7	367.98	-571.95	1305	359.34
192	0.79583	-303.42	1268.2	351.57	-378.79	1524.6	523.11	-398.62	1553.7	195.26	-398.73	1831.7	344.82	-387	1014.8	479.89	-369.07	1026	231.18	-581.81	1038	379.09	-573.82	1035.7	288.08	-477.91	936.5	530.99	-437.58	945.33	144.81	-471.1	1100.1	511.34	-457.56	1100.7	178.89	-591.51	1002.6	346	-440.04	709.61	512.18	-392.07	635.59	460.11	-459.83	625	485.51	-375.82	720.05	487.58	-479.09	528.63	462.08	-465.05	519.83	328.95	-584.36	297.96	434.75	-530.11	226.26	436.33	-590.69	223.74	414.43	-522.16	301.9	454.13	-553.56	125.45	414.83	-536.56	151.35	329.05	-622.66	77.922	346.25	-611.53	45.11	320.36	-618.94	51.067	384.49	-460.79	35.668	454.4	-414.02	40.155	337.87	-354.38	54.328	389.48	-339.63	724.56	144.21	-237.54	689.36	168.61	-292.31	642.51	158.63	-276.9	770.74	155.73	-253.36	562.5	167.04	-311.82	363.85	174.61	-242.97	308.56	172.68	-309.8	292.68	192.68	-248.86	378.03	159.99	-276.07	155.79	199.05	-233.63	174.44	280.43	-324.01	100.26	259.4	-306.07	78.91	290.47	-322.66	73.365	231.41	-151.15	84.672	155.57	-115.93	104.89	269.01	-62.553	121.78	207.22	-440.93	1575	367.8	-566.39	1304.4	359.4
193	0.8	-297.9	1267.5	351.74	-373.24	1524.1	522.97	-393	1552.7	195.06	-393.24	1831	344.25	-381.62	1014.1	480.23	-363.38	1025.2	231.5	-576.2	1037.4	379.09	-568.15	1035.1	288.11	-472.77	936.09	531.27	-431.99	944.39	145.11	-465.59	1099.6	511.48	-451.74	1099.8	179.03	-585.92	1002	346.02	-436.29	709.13	512.28	-388.71	634.83	460.23	-456.55	624.64	485.6	-371.91	719.12	487.82	-476.6	528.35	462.1	-462.69	519.56	328.92	-583.12	298.18	434.77	-529.2	226.22	436.29	-589.81	224.01	414.38	-520.87	301.82	454.09	-553.2	125.47	414.68	-536.06	151.4	328.87	-622.5	77.999	346.1	-611.38	45.161	320.27	-618.87	51.195	384.37	-460.77	35.689	454.4	-413.9	39.999	337.88	-354.27	54.098	389.49	-335.31	722.91	144.66	-233.39	687.27	169.05	-288.38	640.68	159.22	-272.38	768.81	156.12	-248.82	560.86	167.85	-301.71	360.59	174.89	-231.23	307.3	173.05	-297.6	289.48	193	-239.12	376.6	160.45	-259.42	153.36	199.22	-217.64	173.28	280.62	-305.68	96.287	259.47	-287.06	75.513	290.52	-303.36	69.402	231.44	-132.18	85.994	155.89	-97.792	107.32	269.38	-44.809	125.85	207.66	-435.39	1574.4	367.61	-560.81	1303.7	359.43
194	0.80417	-292.37	1266.7	351.9	-367.7	1523.6	522.82	-387.37	1551.8	194.84	-387.75	1830.2	343.66	-376.2	1013.3	480.56	-357.67	1024.3	231.8	-570.57	1036.9	379.07	-562.46	1034.4	288.13	-467.6	935.64	531.56	-426.39	943.38	145.42	-460.08	1099.1	511.61	-445.9	1099	179.16	-580.31	1001.5	346.02	-432.49	708.62	512.38	-385.32	634.06	460.36	-453.22	624.25	485.72	-367.97	718.16	488.06	-474.07	528.05	462.13	-460.29	519.28	328.89	-581.86	298.4	434.8	-528.29	226.17	436.26	-588.91	224.28	414.33	-519.57	301.74	454.06	-552.84	125.48	414.53	-535.57	151.44	328.69	-622.35	78.072	345.94	-611.25	45.211	320.18	-618.79	51.318	384.24	-460.75	35.716	454.41	-413.78	39.839	337.89	-354.18	53.869	389.5	-331.05	721.15	145.09	-229.31	685.05	169.51	-284.54	638.72	159.78	-267.91	766.75	156.52	-244.36	559.11	168.69	-291.7	357.42	175.17	-219.66	306.15	173.42	-285.53	286.41	193.32	-229.52	375.22	160.92	-242.99	151.17	199.39	-201.89	172.32	280.8	-287.56	92.634	259.52	-268.3	72.44	290.55	-284.29	65.776	231.47	-113.55	87.537	156.2	-80.027	109.93	269.74	-27.459	130.06	208.1	-429.85	1573.6	367.39	-555.23	1303	359.43
195	0.80833	-286.84	1265.9	352.05	-362.17	1523	522.65	-381.72	1550.7	194.61	-382.26	1829.4	343.07	-370.76	1012.6	480.87	-351.94	1023.4	232.09	-564.92	1036.3	379.04	-556.76	1033.7	288.13	-462.4	935.16	531.85	-420.77	942.31	145.73	-454.57	1098.5	511.73	-440.07	1098	179.29	-574.68	1000.9	346.01	-428.66	708.08	512.48	-381.88	633.26	460.51	-449.85	623.84	485.84	-363.99	717.17	488.31	-471.5	527.73	462.17	-457.85	518.99	328.88	-580.58	298.62	434.83	-527.37	226.11	436.23	-587.99	224.55	414.28	-518.25	301.65	454.04	-552.48	125.49	414.38	-535.07	151.48	328.51	-622.2	78.144	345.79	-611.12	45.262	320.08	-618.72	51.437	384.12	-460.73	35.748	454.43	-413.66	39.676	337.91	-354.08	53.641	389.51	-326.84	719.29	145.5	-225.31	682.71	169.99	-280.77	636.66	160.33	-263.49	764.59	156.94	-239.95	557.28	169.53	-281.81	354.35	175.46	-208.3	305.09	173.78	-273.64	283.49	193.63	-220.08	373.9	161.39	-226.8	149.21	199.55	-186.42	171.56	280.96	-269.71	89.295	259.56	-249.82	69.689	290.57	-265.51	62.489	231.48	-95.306	89.278	156.51	-62.667	112.7	270.09	-10.538	134.38	208.53	-424.32	1572.8	367.16	-549.64	1302.2	359.41
196	0.8125	-281.31	1265.1	352.18	-356.66	1522.3	522.46	-376.07	1549.6	194.35	-376.78	1828.5	342.46	-365.29	1011.8	481.17	-346.19	1022.5	232.36	-559.25	1035.6	379	-551.03	1032.9	288.11	-457.16	934.64	532.13	-415.12	941.17	146.04	-449.04	1097.9	511.84	-434.25	1097	179.4	-569.03	1000.2	345.99	-424.79	707.52	512.58	-378.4	632.45	460.67	-446.43	623.41	485.98	-359.98	716.16	488.57	-468.89	527.39	462.22	-455.36	518.68	328.87	-579.27	298.85	434.86	-526.43	226.05	436.22	-587.07	224.83	414.24	-516.92	301.55	454.04	-552.12	125.5	414.23	-534.56	151.52	328.33	-622.04	78.215	345.63	-610.99	45.316	319.98	-618.65	51.553	383.99	-460.72	35.783	454.46	-413.54	39.514	337.93	-353.99	53.415	389.52	-322.65	717.36	145.88	-221.34	680.28	170.48	-277.05	634.51	160.86	-259.09	762.33	157.38	-235.59	555.39	170.39	-272.06	351.39	175.75	-197.15	304.13	174.15	-261.92	280.73	193.94	-210.81	372.64	161.88	-210.9	147.48	199.71	-171.26	170.97	281.13	-252.17	86.267	259.59	-231.68	67.25	290.59	-247.06	59.536	231.5	-77.503	91.192	156.8	-45.748	115.6	270.42	5.9205	138.77	208.95	-418.79	1572	366.9	-544.03	1301.3	359.37
197	0.81667	-275.77	1264.2	352.31	-351.15	1521.6	522.26	-370.41	1548.5	194.08	-371.3	1827.6	341.84	-359.8	1010.9	481.45	-340.42	1021.4	232.62	-553.57	1034.9	378.94	-545.28	1032	288.08	-451.9	934.09	532.42	-409.45	939.98	146.34	-443.51	1097.2	511.94	-428.42	1096	179.51	-563.35	999.43	345.95	-420.87	706.93	512.68	-374.87	631.61	460.84	-442.97	622.95	486.13	-355.93	715.12	488.83	-466.23	527.04	462.28	-452.83	518.36	328.87	-577.95	299.07	434.9	-525.49	225.99	436.21	-586.13	225.11	414.22	-515.56	301.44	454.04	-551.75	125.5	414.08	-534.05	151.56	328.16	-621.89	78.288	345.47	-610.87	45.375	319.87	-618.58	51.668	383.86	-460.7	35.817	454.49	-413.42	39.353	337.95	-353.91	53.19	389.54	-318.48	715.36	146.23	-217.41	677.76	171	-273.35	632.3	161.37	-254.71	760	157.83	-231.27	553.44	171.25	-262.46	348.53	176.06	-186.25	303.25	174.52	-250.42	278.11	194.27	-201.72	371.43	162.36	-195.34	145.96	199.88	-156.45	170.55	281.29	-234.99	83.541	259.63	-213.93	65.109	290.62	-229.02	56.907	231.52	-60.184	93.251	157.09	-29.303	118.59	270.74	21.885	143.2	209.36	-413.26	1571.1	366.62	-538.42	1300.4	359.31
